<?xml version="1.0" encoding="UTF-8"?>
<svg version="1.1" xmlns="http://www.w3.org/2000/svg" width="1125" height="675" viewBox="0 0 1125 675">
  <defs>
    <style>
      .logo-piece {
        opacity: 1;
        transform-origin: center;
        transform: scale(1) rotate(0deg) translate(0px, 0px);
        transition: all 0.5s ease;
      }
      
      .logo-piece.animate {
        animation: assemble 2s ease-in-out forwards;
      }
      
      
      .piece-1 { animation-delay: 0s; }
      .piece-2 { animation-delay: 0.2s; }
      .piece-3 { animation-delay: 0.4s; }
      .piece-4 { animation-delay: 0.6s; }
      .piece-5 { animation-delay: 0.8s; }
      .piece-6 { animation-delay: 1s; }
      .piece-7 { animation-delay: 1.2s; }
      .piece-8 { animation-delay: 1.4s; }
      .piece-9 { animation-delay: 1.6s; }
      .piece-10 { animation-delay: 1.8s; }
      
      @keyframes assemble {
        0% {
          opacity: 0;
          transform: scale(0.3) rotate(180deg) translate(200px, -200px);
        }
        50% {
          opacity: 0.7;
          transform: scale(0.8) rotate(90deg) translate(50px, -50px);
        }
        100% {
          opacity: 1;
          transform: scale(1) rotate(0deg) translate(0px, 0px);
        }
      }
      
      .background-piece {
        animation: fadeIn 0.5s ease-in-out forwards;
        opacity: 0;
      }
      
      @keyframes fadeIn {
        0% { opacity: 0; }
        100% { opacity: 1; }
      }
    </style>
  </defs>
  
  <!-- Background -->
  <g class="background-piece">
    <path d="M0 0 C371.25 0 742.5 0 1125 0 C1125 222.75 1125 445.5 1125 675 C753.75 675 382.5 675 0 675 C0 452.25 0 229.5 0 0 Z " fill="transparent"/>
  </g>
  
  <!-- Piece 1: Main tooth shape -->
  <g class="logo-piece piece-1">
    <path d="M0 0 C9.3130499 7.78820194 14.15253911 16.55654482 16.25 28.6875 C17.44337276 45.35850589 16.78147995 60.92825103 6.25 74.6875 C-2.39856209 84.45366951 -13.95191279 88.66818332 -26.75 89.6875 C-37.69709354 90.26760239 -48.30102372 90.42272727 -58.75 86.6875 C-59.55566406 86.4090625 -60.36132812 86.130625 -61.19140625 85.84375 C-69.94687154 82.4067484 -77.01618677 75.77852795 -81.75 67.6875 C-85.83673934 58.28669384 -86.9770992 50.36727541 -87.0625 40.1875 C-87.09150391 39.06601562 -87.12050781 37.94453125 -87.15039062 36.7890625 C-87.24696261 23.92270282 -83.54180528 13.00991506 -74.75 3.53125 C-56.5929751 -13.84761669 -20.01864691 -14.85576792 0 0 Z " fill="#242122" transform="translate(470.75,301.3125)"/>
  </g>
  
  <!-- Piece 2: Second tooth -->
  <g class="logo-piece piece-2">
    <path d="M0 0 C9.94824867 8.16821087 15.26596827 18.96725492 16.64111328 31.75610352 C16.77146502 34.60872503 16.80359817 37.43759791 16.7734375 40.29296875 C16.76658936 41.29666504 16.75974121 42.30036133 16.75268555 43.33447266 C16.58399241 51.15248362 15.57299752 57.72450205 12.3359375 64.91796875 C11.77519531 66.1709375 11.77519531 66.1709375 11.203125 67.44921875 C5.63264773 78.51639214 -3.12933952 83.92293404 -14.625 87.95703125 C-30.53655483 92.33373142 -50.84991991 91.68559335 -65.6640625 84.16796875 C-75.58131703 78.17353934 -82.34891912 69.50319222 -85.5390625 58.29296875 C-88.74671521 42.13946021 -88.61555358 24.48607374 -79.9765625 10.16796875 C-72.21846684 -0.63444293 -61.87236927 -6.13070448 -49.01123047 -8.72021484 C-32.48898533 -11.2671222 -13.94776236 -9.82207289 0 0 Z " fill="#242021" transform="translate(672.6640625,301.08203125)"/>
  </g>
  
  <!-- Piece 3: Letter "A" -->
  <g class="logo-piece piece-3">
    <path d="M0 0 C62.46486486 0 62.46486486 0 73.72265625 9.4453125 C80.23064118 16.72947912 82.41082022 25.36785447 82.26953125 34.8984375 C81.37902066 45.14576227 77.8560798 53.2726673 70 60 C67.98964888 61.31902785 66.26249322 62.15156504 64 63 C65.2453165 67.29634192 66.7564425 70.35560042 69.5 73.875 C73.08727665 78.64924319 76.34189646 83.55689893 79.5 88.625 C79.94537109 89.33640137 80.39074219 90.04780273 80.84960938 90.78076172 C84 95.86614502 84 95.86614502 84 97 C75.77791596 98.38487399 67.06196923 99.62287481 59 97 C51.54971512 90.89470151 47.80525252 81.09905687 43.86450195 72.53125 C41.7693873 68.46386961 41.7693873 68.46386961 37.92236328 66.29101562 C35.46014002 65.98586173 33.16967109 65.94274837 30.6875 66 C27.820625 66 24.95375 66 22 66 C22 76.23 22 86.46 22 97 C14.74 97 7.48 97 0 97 C0 64.99 0 32.98 0 0 Z " fill="#242122" transform="translate(816,293)"/>
  </g>
  
  <!-- Piece 4: Letter "B" -->
  <g class="logo-piece piece-4">
    <path d="M0 0 C-0.54981916 6.04801071 -1.90429574 11.30601106 -4 17 C-5.11117187 16.79503906 -6.22234375 16.59007812 -7.3671875 16.37890625 C-18.01964419 14.43697095 -28.33763729 12.95167951 -39.1875 12.75 C-40.50105469 12.72421875 -41.81460938 12.6984375 -43.16796875 12.671875 C-48.24974168 13.10701152 -52.29800767 14.29800767 -56 18 C-56.61072565 23.51991106 -56.61072565 23.51991106 -54.4375 28.375 C-48.86865003 32.08756665 -41.99064008 32.51333314 -35.5 33.375 C-11.22075184 36.84921286 -11.22075184 36.84921286 -2 44 C-2 44.66 -2 45.32 -2 46 C-0.515 46.495 -0.515 46.495 1 47 C5.97469607 53.70502514 5.90384248 62.04065246 5 70 C4.11876669 73.36155853 2.86251051 76.07486594 1 79 C0.59910156 79.63550781 0.19820312 80.27101563 -0.21484375 80.92578125 C-5.91805408 88.645779 -14.91531517 91.06229899 -23.98217773 92.60083008 C-43.55733103 95.19005228 -63.45386935 93.31019178 -81 84 C-79.8052271 78.07627678 -78.2465785 72.61644624 -76 67 C-75.46375 67.17015625 -74.9275 67.3403125 -74.375 67.515625 C-71.59235365 68.37604854 -68.79655504 69.18589933 -66 70 C-64.27330078 70.53947266 -64.27330078 70.53947266 -62.51171875 71.08984375 C-54.60090296 73.36046605 -47.24383219 74.38893438 -39 74.4375 C-38.12819092 74.44740967 -37.25638184 74.45731934 -36.3581543 74.4675293 C-30.03200578 74.38319683 -23.87505442 73.60551807 -19 69.1875 C-17.38737363 65.65987981 -17.46080064 62.5904875 -18.69921875 58.9375 C-21.61526957 54.59407295 -28.12791201 54.03737556 -33 53 C-37.01236319 52.29884466 -41.03694207 51.68269787 -45.0625 51.0625 C-56.31863386 49.29695056 -66.35423653 47.55516531 -74.59765625 39.0390625 C-78.35083377 33.58179602 -79.53741543 28.6317431 -79.4375 22.0625 C-79.42920166 21.35883301 -79.42090332 20.65516602 -79.41235352 19.93017578 C-79.16937088 12.47121421 -77.2801942 7.96359409 -72 2.8125 C-53.29297266 -11.97534451 -20.94839416 -7.6243272 0 0 Z " fill="#252223" transform="translate(991,298)"/>
  </g>
  
  <!-- Piece 5: Letter "C" -->
  <g class="logo-piece piece-5">
    <path d="M0 0 C7.26 0 14.52 0 22 0 C22.00410889 1.98773438 22.00821777 3.97546875 22.01245117 6.0234375 C22.03189841 12.61340236 22.07428461 19.20291249 22.13209057 25.79264832 C22.166286 29.78550633 22.19145883 33.77798476 22.19555664 37.77099609 C22.19985578 41.62930079 22.22845011 45.48675033 22.27343178 49.3447876 C22.28635561 50.81181851 22.29073265 52.27895203 22.28615379 53.74603271 C22.22701481 65.30761456 22.22701481 65.30761456 28 75 C34.31979137 79.77837884 41.36149367 79.50859401 49 79 C54.14965969 78.15971122 57.77383171 76.84383545 61 72.625 C64.05506915 67.97874901 64.13034854 62.98761313 64.20532227 57.55737305 C64.22526749 56.27642258 64.24521271 54.99547211 64.26576233 53.67570496 C64.28274278 52.28771076 64.29962173 50.89971533 64.31640625 49.51171875 C64.33699424 48.08396325 64.35799118 46.65621359 64.37937927 45.22846985 C64.43440953 41.48193105 64.48390227 37.73533899 64.53222656 33.9887085 C64.58258121 30.16104426 64.63819418 26.33345677 64.69335938 22.50585938 C64.80070779 15.00396961 64.90171757 7.50201502 65 0 C72.26 0 79.52 0 87 0 C87.0908906 8.51120552 87.1640523 17.02202458 87.20724869 25.53358746 C87.22799585 29.48717679 87.25607296 33.44041277 87.30175781 37.39379883 C87.34568168 41.2193676 87.36923347 45.04459963 87.37950897 48.87040138 C87.38681795 50.31944889 87.4010868 51.76848099 87.42292023 53.21738243 C87.59671424 65.24484136 86.44295675 77.48135665 78.3125 86.99609375 C65.84254115 97.80198715 50.20015517 98.87826762 34.4921875 98.1953125 C24.52736799 97.41437053 15.26535524 93.3716068 8.2578125 86.22265625 C0.08371688 76.27953994 -0.5697631 65.18173676 -0.390625 52.83203125 C-0.38314704 51.30076341 -0.37746148 49.76948587 -0.37347412 48.23820496 C-0.35833973 44.24482921 -0.31916679 40.25205306 -0.2746582 36.25891113 C-0.23343899 32.16943467 -0.21540674 28.07985953 -0.1953125 23.99023438 C-0.15265746 15.99318632 -0.08241118 7.99673726 0 0 Z " fill="#242122" transform="translate(707,293)"/>
  </g>
  
  <!-- Piece 6: Letter "D" -->
  <g class="logo-piece piece-6">
    <path d="M0 0 C0.86391357 0.11762695 1.72782715 0.23525391 2.61791992 0.35644531 C8.04782695 1.18086766 12.79641755 2.59390423 17.875 4.6875 C16.28578475 10.04845277 14.68527062 15.39593973 12.875 20.6875 C8.17868296 20.22556718 3.66705444 19.65228192 -0.9375 18.625 C-6.37703512 17.60941494 -11.73230433 17.43228063 -17.25 17.375 C-18.0850708 17.35751709 -18.9201416 17.34003418 -19.78051758 17.32202148 C-26.92518687 17.32835853 -33.3904569 18.42852961 -39 23.0625 C-47.58341464 33.66554161 -47.14241913 45.63766932 -46.125 58.6875 C-44.84217496 65.27497991 -42.66486184 70.62493465 -37.125 74.6875 C-30.48929489 78.47172788 -24.68664816 79.33050989 -17.125 79.1875 C-15.62791504 79.17589844 -15.62791504 79.17589844 -14.10058594 79.1640625 C-6.19847617 78.98211434 1.08608727 77.71129673 8.671875 75.5625 C11.875 74.6875 11.875 74.6875 14.875 74.6875 C15.54864661 76.76858685 16.21366798 78.8524671 16.875 80.9375 C17.24625 82.09765625 17.6175 83.2578125 18 84.453125 C18.875 87.6875 18.875 87.6875 18.875 91.6875 C16.794397 92.32152991 14.71031046 92.94412872 12.625 93.5625 C11.46484375 93.91054688 10.3046875 94.25859375 9.109375 94.6171875 C-8.86062045 99.43781197 -31.93564374 101.49913656 -48.71484375 92.26171875 C-58.40173426 86.1858247 -65.01883283 77.72698601 -68.125 66.6875 C-71.37879413 49.42791289 -70.74384484 31.21241585 -62 15.8125 C-56.02053722 7.07230653 -47.25859168 2.28370944 -37.125 -0.3125 C-24.72435624 -2.21249649 -12.38918164 -1.72489536 0 0 Z " fill="#242122" transform="translate(355.125,293.3125)"/>
  </g>
  
  <!-- Piece 7: Tooth highlights -->
  <g class="logo-piece piece-7">
    <path d="M0 0 C5.67356334 4.37337174 7.54336362 11.08903164 9.1875 17.8125 C10.14170336 29.11870025 9.79851815 40.65194728 3.0625 50.3125 C-0.83343045 53.70026561 -4.95482777 55.20699816 -9.8125 56.8125 C-10.8025 57.1425 -11.7925 57.4725 -12.8125 57.8125 C-23.6568049 58.74470902 -32.67388279 58.50620168 -41.8125 51.8125 C-48.26312469 46.11565617 -49.46972212 37.03452028 -50.1328125 28.8671875 C-50.54059139 18.94574976 -49.19739133 10.1277766 -43.3125 1.875 C-32.70067934 -9.13377155 -12.07229371 -7.52294513 0 0 Z " fill="#F3F4F3" transform="translate(455.8125,315.1875)"/>
    <path d="M0 0 C5.4239937 4.33677893 7.58896806 10.76984893 8.75390625 17.40234375 C9.49274419 28.81454824 9.09497224 39.4820001 2.75390625 49.40234375 C-3.83420777 56.17346094 -13.44724433 57.53796295 -22.49609375 57.71484375 C-30.53704575 57.74124921 -36.03777361 56.19218735 -42.12109375 50.90234375 C-50.63936111 40.88085274 -51.19032421 29.08388334 -50.24609375 16.40234375 C-49.15935737 9.45628707 -46.68806702 3.97993201 -41.24609375 -0.59765625 C-29.10636388 -8.2697784 -11.89577751 -8.03139578 0 0 Z " fill="#F3F4F4" transform="translate(658.24609375,315.59765625)"/>
  </g>
  
  <!-- Piece 8: Letter "E" -->
  <g class="logo-piece piece-8">
    <path d="M0 0 C7.26 0 14.52 0 22 0 C22 26.07 22 52.14 22 79 C38.17 79 54.34 79 71 79 C71 92 71 92 70 97 C46.9 97 23.8 97 0 97 C0 64.99 0 32.98 0 0 Z " fill="#242122" transform="translate(507,293)"/>
  </g>
  
  <!-- Piece 9: Main logo structure -->
  <g class="logo-piece piece-9">
    <path d="M0 0 C0.84546387 0.00243713 1.69092773 0.00487427 2.56201172 0.00738525 C39.43584998 0.13163028 39.43584998 0.13163028 52.0625 4.25 C53.18269531 4.59417969 54.30289063 4.93835938 55.45703125 5.29296875 C69.54833222 10.01154153 78.92633876 16.70708006 85.75 29.9375 C94.19512097 47.13211154 94.45000308 66.2965245 94.375 85.0625 C94.37317719 86.0062146 94.37135437 86.9499292 94.36947632 87.92224121 C94.19316809 142.22058141 94.19316809 142.22058141 77.0703125 161.4921875 C68.31394142 169.99196163 57.10408603 173.98662335 45.22338867 175.90136719 C43.60457044 176.1625436 41.99072292 176.45485409 40.38012695 176.76269531 C29.44047894 178.64202152 18.53886867 178.5530377 7.46801758 178.51074219 C4.13539386 178.5000334 0.80331039 178.51068111 -2.52929688 178.5234375 C-24.34000729 178.53929141 -49.73937667 177.75331639 -66.75 162 C-74.73816231 153.34136843 -78.89362902 142.8822349 -81.0625 131.5 C-81.23136719 130.66984375 -81.40023437 129.8396875 -81.57421875 128.984375 C-83.98366033 116.69053134 -84.14287385 104.47976381 -84.125 92 C-84.12406342 91.15917877 -84.12312683 90.31835754 -84.12216187 89.45205688 C-83.99370216 36.20202904 -83.99370216 36.20202904 -67.91015625 17.94921875 C-49.99138297 0.74330806 -23.40484147 -0.1476012 0 0 Z M-65.97265625 20.06640625 C-86.3758217 42.74109708 -82.19884098 84.73001888 -80.73535156 113.1796875 C-79.51997446 129.80054269 -77.02582792 146.81476642 -64.9375 159.25 C-64.13892578 160.08917969 -64.13892578 160.08917969 -63.32421875 160.9453125 C-49.96467119 173.63528847 -27.56523945 175.56510354 -10.078125 175.55078125 C-8.89007263 175.55506638 -7.70202026 175.5593515 -6.47796631 175.56376648 C-3.9804345 175.5694724 -1.48288608 175.57003789 1.01464844 175.56567383 C4.78870706 175.56251988 8.56197573 175.58600117 12.3359375 175.61132812 C24.91400052 175.64428325 36.8389945 175.41244942 49.0625 172.25 C50.87258545 171.78400391 50.87258545 171.78400391 52.71923828 171.30859375 C64.03078635 168.24687296 74.5962033 162.79214255 80.71875 152.453125 C90.96290167 132.66785168 91.24988624 111.80901802 91.24780273 89.99682617 C91.24998911 87.45018773 91.26823869 84.90398442 91.28710938 82.35742188 C91.31684301 73.86581275 91.0526827 65.47491796 90.19140625 57.0234375 C90.07795113 55.88874275 90.07795113 55.88874275 89.96220398 54.73112488 C88.2853774 39.93061091 83.22123936 25.65669638 71.44140625 15.9921875 C64.58761882 10.97282922 57.46075216 8.6226668 49.3125 6.5 C48.51545654 6.28899658 47.71841309 6.07799316 46.8972168 5.8605957 C33.72343744 2.65367329 19.97790898 3.04597293 6.5 3.0625 C5.24716721 3.06290787 5.24716721 3.06290787 3.96902466 3.06332397 C-33.73192242 2.73806309 -33.73192242 2.73806309 -65.97265625 20.06640625 Z " fill="#323333" transform="translate(160.9375,252.75)"/>
  </g>
  
  <!-- Piece 10: Decorative elements and details -->
  <g class="logo-piece piece-10">
    <path d="M0 0 C0.99 0 1.98 0 3 0 C3.33 4.95 3.66 9.9 4 15 C6.29214747 12.20129061 6.29214747 12.20129061 5.875 9.125 C6 6 6 6 7.5 3.125 C10.54107505 0.5400862 12.20036045 0.30655608 16.09375 0.58984375 C18 1 18 1 20.5 2.5 C22.61136591 6.01894318 22.94237143 9.00106731 22 13 C19.37758928 16.08518908 17.90299701 16.9097003 13.875 17.3125 C11 17 11 17 8 16 C6.38902841 17.11433896 6.38902841 17.11433896 5 19 C4.58518419 21.90521704 4.58518419 21.90521704 4.70703125 25.19921875 C4.71669922 26.40771484 4.72636719 27.61621094 4.73632812 28.86132812 C4.76146484 30.12396484 4.78660156 31.38660156 4.8125 32.6875 C4.82603516 33.96173828 4.83957031 35.23597656 4.85351562 36.54882812 C4.88891801 39.69964057 4.9383021 42.84961045 5 46 C5.99 45.34 6.98 44.68 8 44 C7.88140625 43.34773438 7.7628125 42.69546875 7.640625 42.0234375 C6.9443585 37.30275063 6.59353662 34.79891079 8.8125 30.4375 C10.9878816 28.01350336 11.82999414 27.16090454 14.98828125 26.7265625 C19.20775776 26.54218201 21.41131504 26.62756666 25.0625 28.9375 C27.66309569 33.04811899 28.05631455 36.2594664 27 41 C24.43829935 44.72611003 22.90386888 45.7901733 18.5 46.8125 C15 47 15 47 12.3125 46.875 C9.19123221 47.04371718 8.17898507 47.7583649 6 50 C5.57285919 52.56494618 5.3952377 54.72322205 5.390625 57.29296875 C5.37408875 57.99899734 5.35755249 58.70502594 5.34051514 59.43244934 C5.29198712 61.68422092 5.27065562 63.93531709 5.25 66.1875 C5.22184401 67.71552886 5.19191709 69.24352619 5.16015625 70.77148438 C5.08622806 74.51426728 5.03668377 78.25667424 5 82 C2.69 82 0.38 82 -2 82 C-2 72.1 -2 62.2 -2 52 C-3.65 51.34 -5.3 50.68 -7 50 C-7.61875 49.7525 -8.2375 49.505 -8.875 49.25 C-11.24139397 48.81719595 -11.24139397 48.81719595 -14.3125 50.125 C-19.03201844 51.24488573 -20.90715975 50.51867092 -25 48 C-27.46492779 44.61072429 -27.9890512 42.62408155 -28.0625 38.4375 C-26.97243551 34.91082075 -25.82555217 33.06683583 -22.8125 30.88671875 C-19.26997988 29.1536324 -16.91358865 29.37879545 -13 30 C-10.30894802 32.17574416 -8.54467072 33.91065856 -7 37 C-7.15956831 38.978647 -7.32210601 40.95783213 -7.55078125 42.9296875 C-6.64476768 46.33527043 -3.9071612 47.30066331 -1 49 C-1.0807876 45.39490895 -1.19363684 41.79152079 -1.3125 38.1875 C-1.33505859 37.16333984 -1.35761719 36.13917969 -1.38085938 35.08398438 C-1.4340332 33.60961914 -1.4340332 33.60961914 -1.48828125 32.10546875 C-1.51446533 31.19949951 -1.54064941 30.29353027 -1.56762695 29.36010742 C-2.07854893 26.57124085 -2.69417976 25.62181947 -5 24 C-6.11375 24 -7.2275 24 -8.375 24 C-12.34082359 24 -13.89617134 23.37351604 -17 21 C-18.60776409 17.78447181 -18.60485913 14.47794 -18 11 C-15.45767292 8.00902696 -13.8425303 7.15797443 -10 6.4375 C-7 7 -7 7 -4.125 8.875 C-1.15599049 13.24119046 -1.55202408 16.87316446 -2 22 C-1.34 22.33 -0.68 22.66 0 23 C0 15.41 0 7.82 0 0 Z " fill="#10100F" transform="translate(166,309)"/>
    <path d="M0 0 C4.125 -0.0825 8.25 -0.165 12.5 -0.25 C13.78455078 -0.28641602 15.06910156 -0.32283203 16.39257812 -0.36035156 C23.03932814 -0.42446147 28.62677346 -0.25340461 34 4 C37.67363687 8.43018783 37.50729972 12.57012621 37.34375 18.1171875 C36.86917928 22.09711013 35.83398166 24.16601834 33 27 C26.43583463 30.82909646 19.99342051 30.34438373 12.5625 30.1875 C8.416875 30.125625 4.27125 30.06375 0 30 C0 20.1 0 10.2 0 0 Z " fill="#F3F4F3" transform="translate(838,311)"/>
  </g>
  
  <!-- Additional decorative elements -->
  <g class="logo-piece piece-10">
    <path d="M0 0 C2.69105198 2.17574416 4.45532928 3.91065856 6 7 C6.23668473 11.26032507 6.38063778 14.39184586 4 18 C-0.33335776 20.60354489 -3.98537391 21.24547405 -8.875 20.0625 C-12.54959404 17.63726794 -13.70901322 16.19570703 -15 12 C-15.08158318 7.34975862 -14.5115335 5.58639206 -11.4375 2.0625 C-7.55743109 -0.74495371 -4.68072512 -0.74297224 0 0 Z " fill="#87AF7C" transform="translate(153,339)"/>
    <path d="M0 0 C3.0625 1.9375 3.0625 1.9375 5 5 C5.69113243 8.15864655 5.70352709 10.84270771 5 14 C2.4217661 17.7501584 0.85503588 18.78999119 -3.5625 19.875 C-6.39998292 19.9781812 -8.3621378 19.94963039 -11 19 C-11 18.34 -11 17.68 -11 17 C-11.66 17 -12.32 17 -13 17 C-15.10900443 13.57286781 -15.47895471 10.99128926 -15 7 C-11.09505671 0.10126686 -7.68890505 -1.12682229 0 0 Z " fill="#E27054" transform="translate(188,336)"/>
    <path d="M0 0 C2.875 2.0625 2.875 2.0625 5 5 C5.63127485 8.99807408 5.67917484 11.00735985 3.375 14.375 C0.43721938 16.38506043 -1.4396496 16.92733979 -5 17 C-9.56521739 14.86956522 -9.56521739 14.86956522 -11 12 C-11.28395581 9.06578994 -11.49548029 6.84901166 -11 4 C-7.75032314 0.17685075 -4.94151119 -0.92653335 0 0 Z " fill="#299c92" transform="translate(159,316)"/>
    <path d="M0 0 C1.90625 0.41015625 1.90625 0.41015625 4.40625 1.91015625 C6.51761591 5.42909943 6.84862143 8.41122356 5.90625 12.41015625 C3.36392292 15.40112929 1.7487803 16.25218182 -2.09375 16.97265625 C-6.19764613 16.20317573 -7.63334272 14.73894257 -10.09375 11.41015625 C-10.80335213 7.62561157 -10.37176176 5.94301212 -8.59375 2.53515625 C-5.55267495 -0.04975755 -3.89338955 -0.28328767 0 0 Z " fill="#2B4551" transform="translate(182.09375,309.58984375)"/>
    <!-- Yellow circle at bottom of tree branch -->
    <circle cx="166" cy="304" r="8" fill="#FCD34D" class="logo-piece piece-10"/>
  </g>
</svg>
